<svg width="18" height="18" viewBox="0 0 18 18" fill="none" xmlns="http://www.w3.org/2000/svg">
<mask id="mask0_16_146" style="mask-type:alpha" maskUnits="userSpaceOnUse" x="0" y="0" width="18" height="18">
<rect width="18" height="18" fill="#D9D9D9"/>
</mask>
<g mask="url(#mask0_16_146)">
<path d="M3.46153 14.25C3.11634 14.25 2.82812 14.1344 2.59688 13.9031C2.36563 13.6719 2.25 13.3837 2.25 13.0385V4.96153C2.25 4.61634 2.36563 4.32812 2.59688 4.09688C2.82812 3.86563 3.11634 3.75 3.46153 3.75H14.5385C14.8837 3.75 15.1719 3.86563 15.4031 4.09688C15.6344 4.32812 15.75 4.61634 15.75 4.96153V13.0385C15.75 13.3837 15.6344 13.6719 15.4031 13.9031C15.1719 14.1344 14.8837 14.25 14.5385 14.25H3.46153ZM9 9.08655L3 5.16347V13.0385C3 13.1731 3.04327 13.2837 3.12981 13.3702C3.21634 13.4567 3.32692 13.5 3.46153 13.5H14.5385C14.6731 13.5 14.7837 13.4567 14.8702 13.3702C14.9567 13.2837 15 13.1731 15 13.0385V5.16347L9 9.08655ZM9 8.25L14.7692 4.5H3.23077L9 8.25ZM3 5.16347V4.5V13.0385C3 13.1731 3.04327 13.2837 3.12981 13.3702C3.21634 13.4567 3.32692 13.5 3.46153 13.5H3V5.16347Z" fill="#1C1B1F"/>
</g>
</svg>
