<svg width="15" height="14" viewBox="0 0 15 14" fill="none" xmlns="http://www.w3.org/2000/svg">
<path d="M12.8086 2.03529C12.1178 1.38751 11.2951 0.873942 10.3886 0.524521C9.48204 0.1751 8.50971 -0.00318873 7.52825 4.31641e-05C3.41568 4.31641e-05 0.0640382 3.11328 0.0602712 6.93527C0.0602712 8.15939 0.404947 9.35026 1.05569 10.4046L0 14L3.95906 13.0358C5.05431 13.5896 6.28132 13.8798 7.52825 13.8801H7.53202C11.6455 13.8801 14.9962 10.7669 15 6.9414C15.0009 6.02969 14.8077 5.12682 14.4314 4.2848C14.0552 3.44278 13.5042 2.67826 12.8086 2.03529ZM7.52825 12.7059C6.41606 12.7062 5.3243 12.4281 4.36778 11.9009L4.14176 11.7749L1.79307 12.3471L2.42027 10.2183L2.27335 9.99864C1.65163 9.08018 1.32281 8.01679 1.32502 6.93177C1.32502 3.75903 4.10974 1.17079 7.53202 1.17079C8.34732 1.16943 9.15484 1.31803 9.90804 1.60802C10.6612 1.89801 11.3452 2.32365 11.9205 2.86041C12.4978 3.39508 12.9555 4.03065 13.2671 4.73048C13.5788 5.43031 13.7382 6.18054 13.7362 6.9379C13.7324 10.122 10.9477 12.7059 7.52825 12.7059ZM10.9326 8.38864C10.7471 8.30202 9.8308 7.88289 9.65846 7.82339C9.48706 7.76652 9.36181 7.73677 9.23939 7.91002C9.11414 8.08239 8.75628 8.47527 8.64892 8.58814C8.54156 8.70452 8.43043 8.71764 8.24397 8.63189C8.05845 8.54439 7.45668 8.36239 6.74472 7.77002C6.1891 7.31065 5.81711 6.7419 5.70599 6.56952C5.59863 6.39627 5.69563 6.30352 5.78886 6.2169C5.87079 6.1399 5.97438 6.0139 6.06762 5.91415C6.16179 5.8144 6.19287 5.7409 6.25408 5.6254C6.31529 5.50815 6.2861 5.4084 6.23995 5.32178C6.19287 5.23515 5.82088 4.38028 5.66361 4.03553C5.51293 3.69516 5.35943 3.74241 5.24454 3.73803C5.13718 3.73191 5.01193 3.73191 4.88668 3.73191C4.79209 3.73409 4.69901 3.75442 4.61328 3.79161C4.52755 3.8288 4.45102 3.88206 4.3885 3.94803C4.2171 4.12128 3.73776 4.5404 3.73776 5.39528C3.73776 6.25015 4.40639 7.07177 4.50056 7.18815C4.59285 7.30452 5.81335 9.05364 7.68646 9.80614C8.12908 9.98551 8.47752 10.0914 8.74968 10.1719C9.19701 10.3049 9.60101 10.2848 9.92309 10.2419C10.2809 10.1911 11.0259 9.82189 11.1831 9.41676C11.3376 9.01077 11.3376 8.66427 11.2905 8.59164C11.2443 8.51814 11.1191 8.47527 10.9326 8.38864Z" fill="#3B3939"/>
</svg>
